<svg width="146" height="39" viewBox="0 0 146 39" fill="none" xmlns="http://www.w3.org/2000/svg">
<path fill-rule="evenodd" clip-rule="evenodd" d="M0 0V24H24V0H0ZM3.41421 2L12 10.5858L20.5858 2H3.41421ZM22 3.41421L13.4142 12L22 20.5858V3.41421ZM20.5858 22L12 13.4142L3.41421 22H20.5858ZM2 20.5858L10.5858 12L2 3.41421V20.5858Z" fill="#4D5358"/>
<path d="M38.4062 16.5352C38.4062 16.2305 38.3594 15.957 38.2656 15.7148C38.1797 15.4648 38.0156 15.2383 37.7734 15.0352C37.5312 14.8242 37.1914 14.6172 36.7539 14.4141C36.3164 14.2109 35.75 14 35.0547 13.7812C34.2812 13.5312 33.5469 13.25 32.8516 12.9375C32.1641 12.625 31.5547 12.2617 31.0234 11.8477C30.5 11.4258 30.0859 10.9375 29.7812 10.3828C29.4844 9.82812 29.3359 9.18359 29.3359 8.44922C29.3359 7.73828 29.4922 7.09375 29.8047 6.51562C30.1172 5.92969 30.5547 5.42969 31.1172 5.01562C31.6797 4.59375 32.3438 4.26953 33.1094 4.04297C33.8828 3.81641 34.7305 3.70312 35.6523 3.70312C36.9102 3.70312 38.0078 3.92969 38.9453 4.38281C39.8828 4.83594 40.6094 5.45703 41.125 6.24609C41.6484 7.03516 41.9102 7.9375 41.9102 8.95312H38.418C38.418 8.45312 38.3125 8.01562 38.1016 7.64062C37.8984 7.25781 37.5859 6.95703 37.1641 6.73828C36.75 6.51953 36.2266 6.41016 35.5938 6.41016C34.9844 6.41016 34.4766 6.50391 34.0703 6.69141C33.6641 6.87109 33.3594 7.11719 33.1562 7.42969C32.9531 7.73438 32.8516 8.07812 32.8516 8.46094C32.8516 8.75 32.9219 9.01172 33.0625 9.24609C33.2109 9.48047 33.4297 9.69922 33.7188 9.90234C34.0078 10.1055 34.3633 10.2969 34.7852 10.4766C35.207 10.6562 35.6953 10.832 36.25 11.0039C37.1797 11.2852 37.9961 11.6016 38.6992 11.9531C39.4102 12.3047 40.0039 12.6992 40.4805 13.1367C40.957 13.5742 41.3164 14.0703 41.5586 14.625C41.8008 15.1797 41.9219 15.8086 41.9219 16.5117C41.9219 17.2539 41.7773 17.918 41.4883 18.5039C41.1992 19.0898 40.7812 19.5859 40.2344 19.9922C39.6875 20.3984 39.0352 20.707 38.2773 20.918C37.5195 21.1289 36.6719 21.2344 35.7344 21.2344C34.8906 21.2344 34.0586 21.125 33.2383 20.9062C32.418 20.6797 31.6719 20.3398 31 19.8867C30.3359 19.4336 29.8047 18.8555 29.4062 18.1523C29.0078 17.4492 28.8086 16.6172 28.8086 15.6562H32.3359C32.3359 16.1875 32.418 16.6367 32.582 17.0039C32.7461 17.3711 32.9766 17.668 33.2734 17.8945C33.5781 18.1211 33.9375 18.2852 34.3516 18.3867C34.7734 18.4883 35.2344 18.5391 35.7344 18.5391C36.3438 18.5391 36.8438 18.4531 37.2344 18.2812C37.6328 18.1094 37.9258 17.8711 38.1133 17.5664C38.3086 17.2617 38.4062 16.918 38.4062 16.5352ZM51.6016 17.9648V8.32031H54.9766V21H51.8008L51.6016 17.9648ZM51.9766 15.3633L52.9727 15.3398C52.9727 16.1836 52.875 16.9688 52.6797 17.6953C52.4844 18.4141 52.1914 19.0391 51.8008 19.5703C51.4102 20.0938 50.918 20.5039 50.3242 20.8008C49.7305 21.0898 49.0312 21.2344 48.2266 21.2344C47.6094 21.2344 47.0391 21.1484 46.5156 20.9766C46 20.7969 45.5547 20.5195 45.1797 20.1445C44.8125 19.7617 44.5234 19.2734 44.3125 18.6797C44.1094 18.0781 44.0078 17.3555 44.0078 16.5117V8.32031H47.3828V16.5352C47.3828 16.9102 47.4258 17.2266 47.5117 17.4844C47.6055 17.7422 47.7344 17.9531 47.8984 18.1172C48.0625 18.2812 48.2539 18.3984 48.4727 18.4688C48.6992 18.5391 48.9492 18.5742 49.2227 18.5742C49.918 18.5742 50.4648 18.4336 50.8633 18.1523C51.2695 17.8711 51.5547 17.4883 51.7188 17.0039C51.8906 16.5117 51.9766 15.9648 51.9766 15.3633ZM60.9297 10.7578V25.875H57.5547V8.32031H60.6836L60.9297 10.7578ZM68.957 14.5195V14.7656C68.957 15.6875 68.8477 16.543 68.6289 17.332C68.418 18.1211 68.1055 18.8086 67.6914 19.3945C67.2773 19.9727 66.7617 20.4258 66.1445 20.7539C65.5352 21.0742 64.832 21.2344 64.0352 21.2344C63.2617 21.2344 62.5898 21.0781 62.0195 20.7656C61.4492 20.4531 60.9688 20.0156 60.5781 19.4531C60.1953 18.8828 59.8867 18.2227 59.6523 17.4727C59.418 16.7227 59.2383 15.918 59.1133 15.0586V14.4141C59.2383 13.4922 59.418 12.6484 59.6523 11.8828C59.8867 11.1094 60.1953 10.4414 60.5781 9.87891C60.9688 9.30859 61.4453 8.86719 62.0078 8.55469C62.5781 8.24219 63.2461 8.08594 64.0117 8.08594C64.8164 8.08594 65.5234 8.23828 66.1328 8.54297C66.75 8.84766 67.2656 9.28516 67.6797 9.85547C68.1016 10.4258 68.418 11.1055 68.6289 11.8945C68.8477 12.6836 68.957 13.5586 68.957 14.5195ZM65.5703 14.7656V14.5195C65.5703 13.9805 65.5234 13.4844 65.4297 13.0312C65.3438 12.5703 65.2031 12.168 65.0078 11.8242C64.8203 11.4805 64.5703 11.2148 64.2578 11.0273C63.9531 10.832 63.582 10.7344 63.1445 10.7344C62.6836 10.7344 62.2891 10.8086 61.9609 10.957C61.6406 11.1055 61.3789 11.3203 61.1758 11.6016C60.9727 11.8828 60.8203 12.2188 60.7188 12.6094C60.6172 13 60.5547 13.4414 60.5312 13.9336V15.5625C60.5703 16.1406 60.6797 16.6602 60.8594 17.1211C61.0391 17.5742 61.3164 17.9336 61.6914 18.1992C62.0664 18.4648 62.5586 18.5977 63.168 18.5977C63.6133 18.5977 63.9883 18.5 64.293 18.3047C64.5977 18.1016 64.8438 17.8242 65.0312 17.4727C65.2266 17.1211 65.3633 16.7148 65.4414 16.2539C65.5273 15.793 65.5703 15.2969 65.5703 14.7656ZM74.4297 10.7578V25.875H71.0547V8.32031H74.1836L74.4297 10.7578ZM82.457 14.5195V14.7656C82.457 15.6875 82.3477 16.543 82.1289 17.332C81.918 18.1211 81.6055 18.8086 81.1914 19.3945C80.7773 19.9727 80.2617 20.4258 79.6445 20.7539C79.0352 21.0742 78.332 21.2344 77.5352 21.2344C76.7617 21.2344 76.0898 21.0781 75.5195 20.7656C74.9492 20.4531 74.4688 20.0156 74.0781 19.4531C73.6953 18.8828 73.3867 18.2227 73.1523 17.4727C72.918 16.7227 72.7383 15.918 72.6133 15.0586V14.4141C72.7383 13.4922 72.918 12.6484 73.1523 11.8828C73.3867 11.1094 73.6953 10.4414 74.0781 9.87891C74.4688 9.30859 74.9453 8.86719 75.5078 8.55469C76.0781 8.24219 76.7461 8.08594 77.5117 8.08594C78.3164 8.08594 79.0234 8.23828 79.6328 8.54297C80.25 8.84766 80.7656 9.28516 81.1797 9.85547C81.6016 10.4258 81.918 11.1055 82.1289 11.8945C82.3477 12.6836 82.457 13.5586 82.457 14.5195ZM79.0703 14.7656V14.5195C79.0703 13.9805 79.0234 13.4844 78.9297 13.0312C78.8438 12.5703 78.7031 12.168 78.5078 11.8242C78.3203 11.4805 78.0703 11.2148 77.7578 11.0273C77.4531 10.832 77.082 10.7344 76.6445 10.7344C76.1836 10.7344 75.7891 10.8086 75.4609 10.957C75.1406 11.1055 74.8789 11.3203 74.6758 11.6016C74.4727 11.8828 74.3203 12.2188 74.2188 12.6094C74.1172 13 74.0547 13.4414 74.0312 13.9336V15.5625C74.0703 16.1406 74.1797 16.6602 74.3594 17.1211C74.5391 17.5742 74.8164 17.9336 75.1914 18.1992C75.5664 18.4648 76.0586 18.5977 76.668 18.5977C77.1133 18.5977 77.4883 18.5 77.793 18.3047C78.0977 18.1016 78.3438 17.8242 78.5312 17.4727C78.7266 17.1211 78.8633 16.7148 78.9414 16.2539C79.0273 15.793 79.0703 15.2969 79.0703 14.7656ZM88.1172 3V21H84.7305V3H88.1172ZM94.668 19.5703L98.0312 8.32031H101.652L96.5547 22.9102C96.4453 23.2305 96.2969 23.5742 96.1094 23.9414C95.9297 24.3086 95.6836 24.6562 95.3711 24.9844C95.0664 25.3203 94.6797 25.5938 94.2109 25.8047C93.75 26.0156 93.1836 26.1211 92.5117 26.1211C92.1914 26.1211 91.9297 26.1016 91.7266 26.0625C91.5234 26.0234 91.2812 25.9688 91 25.8984V23.4258C91.0859 23.4258 91.1758 23.4258 91.2695 23.4258C91.3633 23.4336 91.4531 23.4375 91.5391 23.4375C91.9844 23.4375 92.3477 23.3867 92.6289 23.2852C92.9102 23.1836 93.1367 23.0273 93.3086 22.8164C93.4805 22.6133 93.6172 22.3477 93.7188 22.0195L94.668 19.5703ZM93.2617 8.32031L96.0156 17.5078L96.4961 21.082L94.1992 21.3281L89.6406 8.32031H93.2617ZM114.59 10.8867V13.6289H105.684V10.8867H114.59ZM106.727 3.9375V21H103.211V3.9375H106.727ZM117.098 3.9375V21H113.594V3.9375H117.098ZM127.445 17.9648V8.32031H130.82V21H127.645L127.445 17.9648ZM127.82 15.3633L128.816 15.3398C128.816 16.1836 128.719 16.9688 128.523 17.6953C128.328 18.4141 128.035 19.0391 127.645 19.5703C127.254 20.0938 126.762 20.5039 126.168 20.8008C125.574 21.0898 124.875 21.2344 124.07 21.2344C123.453 21.2344 122.883 21.1484 122.359 20.9766C121.844 20.7969 121.398 20.5195 121.023 20.1445C120.656 19.7617 120.367 19.2734 120.156 18.6797C119.953 18.0781 119.852 17.3555 119.852 16.5117V8.32031H123.227V16.5352C123.227 16.9102 123.27 17.2266 123.355 17.4844C123.449 17.7422 123.578 17.9531 123.742 18.1172C123.906 18.2812 124.098 18.3984 124.316 18.4688C124.543 18.5391 124.793 18.5742 125.066 18.5742C125.762 18.5742 126.309 18.4336 126.707 18.1523C127.113 17.8711 127.398 17.4883 127.562 17.0039C127.734 16.5117 127.82 15.9648 127.82 15.3633ZM133.398 3H136.773V18.0938L136.434 21H133.398V3ZM144.801 14.5312V14.7773C144.801 15.7227 144.699 16.5898 144.496 17.3789C144.301 18.168 143.996 18.8516 143.582 19.4297C143.168 20 142.652 20.4453 142.035 20.7656C141.426 21.0781 140.707 21.2344 139.879 21.2344C139.105 21.2344 138.434 21.0781 137.863 20.7656C137.301 20.4531 136.828 20.0117 136.445 19.4414C136.062 18.8711 135.754 18.2031 135.52 17.4375C135.285 16.6719 135.109 15.8359 134.992 14.9297V14.3906C135.109 13.4844 135.285 12.6484 135.52 11.8828C135.754 11.1172 136.062 10.4492 136.445 9.87891C136.828 9.30859 137.301 8.86719 137.863 8.55469C138.426 8.24219 139.09 8.08594 139.855 8.08594C140.691 8.08594 141.418 8.24609 142.035 8.56641C142.66 8.87891 143.176 9.32422 143.582 9.90234C143.996 10.4727 144.301 11.1523 144.496 11.9414C144.699 12.7227 144.801 13.5859 144.801 14.5312ZM141.426 14.7773V14.5312C141.426 14.0156 141.387 13.5312 141.309 13.0781C141.238 12.6172 141.113 12.2148 140.934 11.8711C140.754 11.5195 140.508 11.2422 140.195 11.0391C139.891 10.8359 139.496 10.7344 139.012 10.7344C138.551 10.7344 138.16 10.8125 137.84 10.9688C137.52 11.125 137.254 11.3438 137.043 11.625C136.84 11.9062 136.688 12.2422 136.586 12.6328C136.484 13.0156 136.422 13.4375 136.398 13.8984V15.4336C136.422 16.0508 136.523 16.5977 136.703 17.0742C136.891 17.543 137.172 17.9141 137.547 18.1875C137.93 18.4531 138.426 18.5859 139.035 18.5859C139.512 18.5859 139.906 18.4922 140.219 18.3047C140.531 18.1172 140.773 17.8516 140.945 17.5078C141.125 17.1641 141.25 16.7617 141.32 16.3008C141.391 15.832 141.426 15.3242 141.426 14.7773Z" fill="#697077"/>
<path d="M110.295 30.752V33.875C110.189 34.0312 110.021 34.207 109.791 34.4023C109.561 34.5938 109.242 34.7617 108.836 34.9062C108.434 35.0469 107.914 35.1172 107.277 35.1172C106.758 35.1172 106.279 35.0273 105.842 34.8477C105.408 34.6641 105.031 34.3984 104.711 34.0508C104.395 33.6992 104.148 33.2734 103.973 32.7734C103.801 32.2695 103.715 31.6992 103.715 31.0625V30.4004C103.715 29.7637 103.789 29.1953 103.938 28.6953C104.09 28.1953 104.312 27.7715 104.605 27.4238C104.898 27.0723 105.258 26.8066 105.684 26.627C106.109 26.4434 106.598 26.3516 107.148 26.3516C107.801 26.3516 108.346 26.4648 108.783 26.6914C109.225 26.9141 109.568 27.2227 109.814 27.6172C110.064 28.0117 110.225 28.4609 110.295 28.9648H109.164C109.113 28.6562 109.012 28.375 108.859 28.1211C108.711 27.8672 108.498 27.6641 108.221 27.5117C107.943 27.3555 107.586 27.2773 107.148 27.2773C106.754 27.2773 106.412 27.3496 106.123 27.4941C105.834 27.6387 105.596 27.8457 105.408 28.1152C105.221 28.3848 105.08 28.7109 104.986 29.0938C104.896 29.4766 104.852 29.9082 104.852 30.3887V31.0625C104.852 31.5547 104.908 31.9941 105.021 32.3809C105.139 32.7676 105.305 33.0977 105.52 33.3711C105.734 33.6406 105.99 33.8457 106.287 33.9863C106.588 34.127 106.92 34.1973 107.283 34.1973C107.686 34.1973 108.012 34.1641 108.262 34.0977C108.512 34.0273 108.707 33.9453 108.848 33.8516C108.988 33.7539 109.096 33.6621 109.17 33.5762V31.666H107.195V30.752H110.295ZM113.09 29.6562V35H112.006V28.6602H113.061L113.09 29.6562ZM115.07 28.625L115.064 29.6328C114.975 29.6133 114.889 29.6016 114.807 29.5977C114.729 29.5898 114.639 29.5859 114.537 29.5859C114.287 29.5859 114.066 29.625 113.875 29.7031C113.684 29.7812 113.521 29.8906 113.389 30.0312C113.256 30.1719 113.15 30.3398 113.072 30.5352C112.998 30.7266 112.949 30.9375 112.926 31.168L112.621 31.3438C112.621 30.9609 112.658 30.6016 112.732 30.2656C112.811 29.9297 112.93 29.6328 113.09 29.375C113.25 29.1133 113.453 28.9102 113.699 28.7656C113.949 28.6172 114.246 28.543 114.59 28.543C114.668 28.543 114.758 28.5527 114.859 28.5723C114.961 28.5879 115.031 28.6055 115.07 28.625ZM119.951 33.5352V28.6602H121.041V35H120.004L119.951 33.5352ZM120.156 32.1992L120.607 32.1875C120.607 32.6094 120.562 33 120.473 33.3594C120.387 33.7148 120.246 34.0234 120.051 34.2852C119.855 34.5469 119.6 34.752 119.283 34.9004C118.967 35.0449 118.582 35.1172 118.129 35.1172C117.82 35.1172 117.537 35.0723 117.279 34.9824C117.025 34.8926 116.807 34.7539 116.623 34.5664C116.439 34.3789 116.297 34.1348 116.195 33.834C116.098 33.5332 116.049 33.1719 116.049 32.75V28.6602H117.133V32.7617C117.133 33.0469 117.164 33.2832 117.227 33.4707C117.293 33.6543 117.381 33.8008 117.49 33.9102C117.604 34.0156 117.729 34.0898 117.865 34.1328C118.006 34.1758 118.15 34.1973 118.299 34.1973C118.76 34.1973 119.125 34.1094 119.395 33.9336C119.664 33.7539 119.857 33.5137 119.975 33.2129C120.096 32.9082 120.156 32.5703 120.156 32.1992ZM123.777 29.8789V37.4375H122.688V28.6602H123.684L123.777 29.8789ZM128.049 31.7773V31.9004C128.049 32.3613 127.994 32.7891 127.885 33.1836C127.775 33.5742 127.615 33.9141 127.404 34.2031C127.197 34.4922 126.941 34.7168 126.637 34.877C126.332 35.0371 125.982 35.1172 125.588 35.1172C125.186 35.1172 124.83 35.0508 124.521 34.918C124.213 34.7852 123.951 34.5918 123.736 34.3379C123.521 34.084 123.35 33.7793 123.221 33.4238C123.096 33.0684 123.01 32.668 122.963 32.2227V31.5664C123.01 31.0977 123.098 30.6777 123.227 30.3066C123.355 29.9355 123.525 29.6191 123.736 29.3574C123.951 29.0918 124.211 28.8906 124.516 28.7539C124.82 28.6133 125.172 28.543 125.57 28.543C125.969 28.543 126.322 28.6211 126.631 28.7773C126.939 28.9297 127.199 29.1484 127.41 29.4336C127.621 29.7188 127.779 30.0605 127.885 30.459C127.994 30.8535 128.049 31.293 128.049 31.7773ZM126.959 31.9004V31.7773C126.959 31.4609 126.926 31.1641 126.859 30.8867C126.793 30.6055 126.689 30.3594 126.549 30.1484C126.412 29.9336 126.236 29.7656 126.021 29.6445C125.807 29.5195 125.551 29.457 125.254 29.457C124.98 29.457 124.742 29.5039 124.539 29.5977C124.34 29.6914 124.17 29.8184 124.029 29.9785C123.889 30.1348 123.773 30.3145 123.684 30.5176C123.598 30.7168 123.533 30.9238 123.49 31.1387V32.6562C123.568 32.9297 123.678 33.1875 123.818 33.4297C123.959 33.668 124.146 33.8613 124.381 34.0098C124.615 34.1543 124.91 34.2266 125.266 34.2266C125.559 34.2266 125.811 34.166 126.021 34.0449C126.236 33.9199 126.412 33.75 126.549 33.5352C126.689 33.3203 126.793 33.0742 126.859 32.7969C126.926 32.5156 126.959 32.2168 126.959 31.9004ZM129.145 31.9004V31.7656C129.145 31.3086 129.211 30.8848 129.344 30.4941C129.477 30.0996 129.668 29.7578 129.918 29.4688C130.168 29.1758 130.471 28.9492 130.826 28.7891C131.182 28.625 131.58 28.543 132.021 28.543C132.467 28.543 132.867 28.625 133.223 28.7891C133.582 28.9492 133.887 29.1758 134.137 29.4688C134.391 29.7578 134.584 30.0996 134.717 30.4941C134.85 30.8848 134.916 31.3086 134.916 31.7656V31.9004C134.916 32.3574 134.85 32.7812 134.717 33.1719C134.584 33.5625 134.391 33.9043 134.137 34.1973C133.887 34.4863 133.584 34.7129 133.229 34.877C132.877 35.0371 132.479 35.1172 132.033 35.1172C131.588 35.1172 131.188 35.0371 130.832 34.877C130.477 34.7129 130.172 34.4863 129.918 34.1973C129.668 33.9043 129.477 33.5625 129.344 33.1719C129.211 32.7812 129.145 32.3574 129.145 31.9004ZM130.229 31.7656V31.9004C130.229 32.2168 130.266 32.5156 130.34 32.7969C130.414 33.0742 130.525 33.3203 130.674 33.5352C130.826 33.75 131.016 33.9199 131.242 34.0449C131.469 34.166 131.732 34.2266 132.033 34.2266C132.33 34.2266 132.59 34.166 132.812 34.0449C133.039 33.9199 133.227 33.75 133.375 33.5352C133.523 33.3203 133.635 33.0742 133.709 32.7969C133.787 32.5156 133.826 32.2168 133.826 31.9004V31.7656C133.826 31.4531 133.787 31.1582 133.709 30.8809C133.635 30.5996 133.521 30.3516 133.369 30.1367C133.221 29.918 133.033 29.7461 132.807 29.6211C132.584 29.4961 132.322 29.4336 132.021 29.4336C131.725 29.4336 131.463 29.4961 131.236 29.6211C131.014 29.7461 130.826 29.918 130.674 30.1367C130.525 30.3516 130.414 30.5996 130.34 30.8809C130.266 31.1582 130.229 31.4531 130.229 31.7656ZM140.506 30.9395L139.639 30.7168L140.066 26.4688H144.443V27.4707H140.986L140.729 29.791C140.885 29.7012 141.082 29.6172 141.32 29.5391C141.562 29.4609 141.84 29.4219 142.152 29.4219C142.547 29.4219 142.9 29.4902 143.213 29.627C143.525 29.7598 143.791 29.9512 144.01 30.2012C144.232 30.4512 144.402 30.752 144.52 31.1035C144.637 31.4551 144.695 31.8477 144.695 32.2812C144.695 32.6914 144.639 33.0684 144.525 33.4121C144.416 33.7559 144.25 34.0566 144.027 34.3145C143.805 34.5684 143.523 34.7656 143.184 34.9062C142.848 35.0469 142.451 35.1172 141.994 35.1172C141.65 35.1172 141.324 35.0703 141.016 34.9766C140.711 34.8789 140.438 34.7324 140.195 34.5371C139.957 34.3379 139.762 34.0918 139.609 33.7988C139.461 33.502 139.367 33.1543 139.328 32.7559H140.359C140.406 33.0762 140.5 33.3457 140.641 33.5645C140.781 33.7832 140.965 33.9492 141.191 34.0625C141.422 34.1719 141.689 34.2266 141.994 34.2266C142.252 34.2266 142.48 34.1816 142.68 34.0918C142.879 34.002 143.047 33.873 143.184 33.7051C143.32 33.5371 143.424 33.334 143.494 33.0957C143.568 32.8574 143.605 32.5898 143.605 32.293C143.605 32.0234 143.568 31.7734 143.494 31.543C143.42 31.3125 143.309 31.1113 143.16 30.9395C143.016 30.7676 142.838 30.6348 142.627 30.541C142.416 30.4434 142.174 30.3945 141.9 30.3945C141.537 30.3945 141.262 30.4434 141.074 30.541C140.891 30.6387 140.701 30.7715 140.506 30.9395Z" fill="#697077"/>
</svg>
